<mxfile host="app.diagrams.net" agent="Mozilla/5.0 (Windows NT 10.0; Win64; x64) AppleWebKit/537.36 (KHTML, like Gecko) Chrome/135.0.0.0 Safari/537.36" version="27.1.4">
  <diagram name="Trang-1" id="1f0PfflVzzfsGZ1iawQV">
    <mxGraphModel dx="1361" dy="1206" grid="0" gridSize="10" guides="1" tooltips="1" connect="1" arrows="1" fold="1" page="0" pageScale="1" pageWidth="1169" pageHeight="1654" math="0" shadow="0">
      <root>
        <mxCell id="0" />
        <mxCell id="1" parent="0" />
        <mxCell id="FG7W0Npe7aqC11CK1ajt-10" value="" style="edgeStyle=none;curved=1;rounded=0;orthogonalLoop=1;jettySize=auto;html=1;fontSize=12;startSize=8;endSize=8;" edge="1" parent="1" source="FG7W0Npe7aqC11CK1ajt-1" target="FG7W0Npe7aqC11CK1ajt-9">
          <mxGeometry relative="1" as="geometry" />
        </mxCell>
        <mxCell id="FG7W0Npe7aqC11CK1ajt-1" value="Bắt đầu" style="ellipse;whiteSpace=wrap;html=1;" vertex="1" parent="1">
          <mxGeometry x="136" y="-122" width="120" height="80" as="geometry" />
        </mxCell>
        <mxCell id="FG7W0Npe7aqC11CK1ajt-6" value="" style="edgeStyle=none;curved=1;rounded=0;orthogonalLoop=1;jettySize=auto;html=1;fontSize=12;startSize=8;endSize=8;" edge="1" parent="1" source="FG7W0Npe7aqC11CK1ajt-3" target="FG7W0Npe7aqC11CK1ajt-5">
          <mxGeometry relative="1" as="geometry" />
        </mxCell>
        <mxCell id="FG7W0Npe7aqC11CK1ajt-21" value="NO" style="edgeLabel;html=1;align=center;verticalAlign=middle;resizable=0;points=[];fontSize=12;" vertex="1" connectable="0" parent="FG7W0Npe7aqC11CK1ajt-6">
          <mxGeometry x="-0.4014" y="1" relative="1" as="geometry">
            <mxPoint as="offset" />
          </mxGeometry>
        </mxCell>
        <mxCell id="FG7W0Npe7aqC11CK1ajt-13" value="" style="edgeStyle=none;curved=1;rounded=0;orthogonalLoop=1;jettySize=auto;html=1;fontSize=12;startSize=8;endSize=8;" edge="1" parent="1" source="FG7W0Npe7aqC11CK1ajt-3" target="FG7W0Npe7aqC11CK1ajt-12">
          <mxGeometry relative="1" as="geometry" />
        </mxCell>
        <mxCell id="FG7W0Npe7aqC11CK1ajt-22" value="YES" style="edgeLabel;html=1;align=center;verticalAlign=middle;resizable=0;points=[];fontSize=12;" vertex="1" connectable="0" parent="FG7W0Npe7aqC11CK1ajt-13">
          <mxGeometry x="-0.2523" relative="1" as="geometry">
            <mxPoint as="offset" />
          </mxGeometry>
        </mxCell>
        <mxCell id="FG7W0Npe7aqC11CK1ajt-3" value="Kiểm tra trạng thái&lt;br&gt;GPIO25" style="rhombus;whiteSpace=wrap;html=1;" vertex="1" parent="1">
          <mxGeometry x="128" y="80" width="136" height="80" as="geometry" />
        </mxCell>
        <mxCell id="FG7W0Npe7aqC11CK1ajt-8" value="" style="edgeStyle=none;curved=1;rounded=0;orthogonalLoop=1;jettySize=auto;html=1;fontSize=12;startSize=8;endSize=8;" edge="1" parent="1" source="FG7W0Npe7aqC11CK1ajt-5" target="FG7W0Npe7aqC11CK1ajt-7">
          <mxGeometry relative="1" as="geometry" />
        </mxCell>
        <mxCell id="FG7W0Npe7aqC11CK1ajt-24" value="NO" style="edgeLabel;html=1;align=center;verticalAlign=middle;resizable=0;points=[];fontSize=12;" vertex="1" connectable="0" parent="FG7W0Npe7aqC11CK1ajt-8">
          <mxGeometry x="-0.7069" relative="1" as="geometry">
            <mxPoint y="11" as="offset" />
          </mxGeometry>
        </mxCell>
        <mxCell id="FG7W0Npe7aqC11CK1ajt-5" value="Kiểm tra trạng thái&lt;br&gt;GPIO26" style="rhombus;whiteSpace=wrap;html=1;" vertex="1" parent="1">
          <mxGeometry x="131" y="220" width="130" height="80" as="geometry" />
        </mxCell>
        <mxCell id="FG7W0Npe7aqC11CK1ajt-26" value="" style="edgeStyle=none;curved=1;rounded=0;orthogonalLoop=1;jettySize=auto;html=1;fontSize=12;startSize=8;endSize=8;" edge="1" parent="1" source="FG7W0Npe7aqC11CK1ajt-7" target="FG7W0Npe7aqC11CK1ajt-25">
          <mxGeometry relative="1" as="geometry" />
        </mxCell>
        <mxCell id="FG7W0Npe7aqC11CK1ajt-27" value="YES" style="edgeLabel;html=1;align=center;verticalAlign=middle;resizable=0;points=[];fontSize=12;" vertex="1" connectable="0" parent="FG7W0Npe7aqC11CK1ajt-26">
          <mxGeometry x="-0.2331" relative="1" as="geometry">
            <mxPoint as="offset" />
          </mxGeometry>
        </mxCell>
        <mxCell id="FG7W0Npe7aqC11CK1ajt-29" value="" style="edgeStyle=none;curved=1;rounded=0;orthogonalLoop=1;jettySize=auto;html=1;fontSize=12;startSize=8;endSize=8;" edge="1" parent="1" source="FG7W0Npe7aqC11CK1ajt-7" target="FG7W0Npe7aqC11CK1ajt-28">
          <mxGeometry relative="1" as="geometry" />
        </mxCell>
        <mxCell id="FG7W0Npe7aqC11CK1ajt-33" value="NO" style="edgeLabel;html=1;align=center;verticalAlign=middle;resizable=0;points=[];fontSize=12;" vertex="1" connectable="0" parent="FG7W0Npe7aqC11CK1ajt-29">
          <mxGeometry x="-0.1483" y="-3" relative="1" as="geometry">
            <mxPoint as="offset" />
          </mxGeometry>
        </mxCell>
        <mxCell id="FG7W0Npe7aqC11CK1ajt-7" value="Kiểm tra trạng thái&lt;br&gt;GPIO27" style="rhombus;whiteSpace=wrap;html=1;" vertex="1" parent="1">
          <mxGeometry x="131" y="360" width="130" height="80" as="geometry" />
        </mxCell>
        <mxCell id="FG7W0Npe7aqC11CK1ajt-11" value="" style="edgeStyle=none;curved=1;rounded=0;orthogonalLoop=1;jettySize=auto;html=1;fontSize=12;startSize=8;endSize=8;entryX=0.5;entryY=0;entryDx=0;entryDy=0;" edge="1" parent="1" source="FG7W0Npe7aqC11CK1ajt-9" target="FG7W0Npe7aqC11CK1ajt-3">
          <mxGeometry relative="1" as="geometry" />
        </mxCell>
        <mxCell id="FG7W0Npe7aqC11CK1ajt-9" value="Khởi tạo trạng thái ban đầu của các nút nhấn" style="rounded=0;whiteSpace=wrap;html=1;" vertex="1" parent="1">
          <mxGeometry x="136" y="-20" width="120" height="60" as="geometry" />
        </mxCell>
        <mxCell id="FG7W0Npe7aqC11CK1ajt-12" value="Đặt lại biến đếm cảnh báo" style="whiteSpace=wrap;html=1;" vertex="1" parent="1">
          <mxGeometry x="330" y="90" width="120" height="60" as="geometry" />
        </mxCell>
        <mxCell id="FG7W0Npe7aqC11CK1ajt-15" value="" style="endArrow=none;html=1;rounded=0;fontSize=12;startSize=8;endSize=8;curved=1;entryX=0.5;entryY=1;entryDx=0;entryDy=0;" edge="1" parent="1" target="FG7W0Npe7aqC11CK1ajt-12">
          <mxGeometry width="50" height="50" relative="1" as="geometry">
            <mxPoint x="390" y="190" as="sourcePoint" />
            <mxPoint x="170" y="150" as="targetPoint" />
          </mxGeometry>
        </mxCell>
        <mxCell id="FG7W0Npe7aqC11CK1ajt-16" value="" style="endArrow=classic;html=1;rounded=0;fontSize=12;startSize=8;endSize=8;curved=1;" edge="1" parent="1">
          <mxGeometry width="50" height="50" relative="1" as="geometry">
            <mxPoint x="390" y="190" as="sourcePoint" />
            <mxPoint x="200" y="190" as="targetPoint" />
            <Array as="points">
              <mxPoint x="280" y="190" />
            </Array>
          </mxGeometry>
        </mxCell>
        <mxCell id="FG7W0Npe7aqC11CK1ajt-17" value="" style="endArrow=classic;html=1;rounded=0;fontSize=12;startSize=8;endSize=8;curved=1;exitX=1;exitY=0.5;exitDx=0;exitDy=0;" edge="1" parent="1" source="FG7W0Npe7aqC11CK1ajt-5" target="FG7W0Npe7aqC11CK1ajt-18">
          <mxGeometry width="50" height="50" relative="1" as="geometry">
            <mxPoint x="120" y="200" as="sourcePoint" />
            <mxPoint x="170" y="150" as="targetPoint" />
          </mxGeometry>
        </mxCell>
        <mxCell id="FG7W0Npe7aqC11CK1ajt-23" value="YES" style="edgeLabel;html=1;align=center;verticalAlign=middle;resizable=0;points=[];fontSize=12;" vertex="1" connectable="0" parent="FG7W0Npe7aqC11CK1ajt-17">
          <mxGeometry x="-0.1848" y="2" relative="1" as="geometry">
            <mxPoint as="offset" />
          </mxGeometry>
        </mxCell>
        <mxCell id="FG7W0Npe7aqC11CK1ajt-18" value="Đảo lại trạng thái của system enable" style="rounded=0;whiteSpace=wrap;html=1;" vertex="1" parent="1">
          <mxGeometry x="330" y="230" width="120" height="60" as="geometry" />
        </mxCell>
        <mxCell id="FG7W0Npe7aqC11CK1ajt-19" value="" style="endArrow=none;html=1;rounded=0;fontSize=12;startSize=8;endSize=8;curved=1;entryX=0.5;entryY=1;entryDx=0;entryDy=0;" edge="1" parent="1" target="FG7W0Npe7aqC11CK1ajt-18">
          <mxGeometry width="50" height="50" relative="1" as="geometry">
            <mxPoint x="390" y="330" as="sourcePoint" />
            <mxPoint x="170" y="150" as="targetPoint" />
          </mxGeometry>
        </mxCell>
        <mxCell id="FG7W0Npe7aqC11CK1ajt-20" value="" style="endArrow=classic;html=1;rounded=0;fontSize=12;startSize=8;endSize=8;curved=1;" edge="1" parent="1">
          <mxGeometry width="50" height="50" relative="1" as="geometry">
            <mxPoint x="390" y="330" as="sourcePoint" />
            <mxPoint x="200" y="330" as="targetPoint" />
          </mxGeometry>
        </mxCell>
        <mxCell id="FG7W0Npe7aqC11CK1ajt-25" value="Đảo lại trạng thái của display mode" style="whiteSpace=wrap;html=1;" vertex="1" parent="1">
          <mxGeometry x="330" y="370" width="120" height="60" as="geometry" />
        </mxCell>
        <mxCell id="FG7W0Npe7aqC11CK1ajt-28" value="Kết thúc" style="ellipse;whiteSpace=wrap;html=1;" vertex="1" parent="1">
          <mxGeometry x="131" y="490" width="130" height="80" as="geometry" />
        </mxCell>
        <mxCell id="FG7W0Npe7aqC11CK1ajt-30" value="" style="endArrow=none;html=1;rounded=0;fontSize=12;startSize=8;endSize=8;curved=1;entryX=0.5;entryY=1;entryDx=0;entryDy=0;" edge="1" parent="1" target="FG7W0Npe7aqC11CK1ajt-25">
          <mxGeometry width="50" height="50" relative="1" as="geometry">
            <mxPoint x="390" y="460" as="sourcePoint" />
            <mxPoint x="170" y="250" as="targetPoint" />
          </mxGeometry>
        </mxCell>
        <mxCell id="FG7W0Npe7aqC11CK1ajt-31" value="" style="endArrow=classic;html=1;rounded=0;fontSize=12;startSize=8;endSize=8;curved=1;" edge="1" parent="1">
          <mxGeometry width="50" height="50" relative="1" as="geometry">
            <mxPoint x="390" y="460" as="sourcePoint" />
            <mxPoint x="200" y="460" as="targetPoint" />
          </mxGeometry>
        </mxCell>
      </root>
    </mxGraphModel>
  </diagram>
</mxfile>
